<svg width="17" height="17" viewBox="0 0 17 17" fill="none" xmlns="http://www.w3.org/2000/svg">
<g id="vuesax/linear/receipt-2">
<path id="Vector" d="M13.6668 5.19325V11.8066C13.6668 12.8199 13.5735 13.5399 13.3335 14.0533C13.3335 14.0599 13.3268 14.0733 13.3201 14.0799C13.1735 14.2666 12.9802 14.3599 12.7535 14.3599C12.4002 14.3599 11.9735 14.1266 11.5135 13.6333C10.9668 13.0466 10.1268 13.0933 9.64681 13.7333L8.97351 14.6266C8.70684 14.9866 8.3535 15.1666 8.00016 15.1666C7.64683 15.1666 7.29348 14.9866 7.02681 14.6266L6.34684 13.7266C5.87351 13.0933 5.04016 13.0466 4.49349 13.6266L4.48682 13.6333C3.73348 14.4399 3.06684 14.5599 2.68018 14.0799C2.67351 14.0733 2.66683 14.0599 2.66683 14.0533C2.42683 13.5399 2.3335 12.8199 2.3335 11.8066V5.19325C2.3335 4.17992 2.42683 3.45992 2.66683 2.94658C2.66683 2.93992 2.66684 2.93325 2.68018 2.92658C3.06018 2.43992 3.73348 2.55992 4.48682 3.36658L4.49349 3.37325C5.04016 3.95325 5.87351 3.90659 6.34684 3.27325L7.02681 2.37325C7.29348 2.01325 7.64683 1.83325 8.00016 1.83325C8.3535 1.83325 8.70684 2.01325 8.97351 2.37325L9.64681 3.26659C10.1268 3.90659 10.9668 3.95325 11.5135 3.36658C11.9735 2.87325 12.4002 2.63992 12.7535 2.63992C12.9802 2.63992 13.1735 2.73992 13.3201 2.92658C13.3335 2.93325 13.3335 2.93992 13.3335 2.94658C13.5735 3.45992 13.6668 4.17992 13.6668 5.19325Z" stroke="#FF6600" stroke-width="1.5" stroke-linecap="round" stroke-linejoin="round"/>
<path id="Vector_2" d="M5.66699 7.33325H11.0003" stroke="#FF6600" stroke-width="1.5" stroke-linecap="round" stroke-linejoin="round"/>
<path id="Vector_3" d="M5.66699 9.66675H9.66699" stroke="#FF6600" stroke-width="1.5" stroke-linecap="round" stroke-linejoin="round"/>
</g>
</svg>
